<svg width="56" height="63" viewBox="0 0 56 63" fill="none" xmlns="http://www.w3.org/2000/svg">
<g clip-path="url(#clip0_122_1958)">
<path d="M42.8185 36.5049C35.5395 36.5049 29.6372 42.4369 29.6372 49.7525C29.6372 57.0682 35.5395 63.0002 42.8185 63.0002C50.0975 63.0002 55.9998 57.0682 55.9998 49.7525C55.9998 42.4369 50.0975 36.5049 42.8185 36.5049ZM44.2831 57.9955H41.9397V55.6404H44.2831V57.9955ZM44.2831 51.8133H41.9397V42.0983H44.2831V51.8133Z" fill="currentColor"/>
<path d="M22.9413 49.8998C23.5974 39.0249 32.3996 30.2873 43.2259 29.7604C45.1972 29.6632 47.11 29.8369 48.9378 30.2461C49.8546 30.4522 50.7275 29.7663 50.7275 28.8213V16.1712C50.7275 14.9436 50.0743 13.8073 49.0168 13.192L27.0744 0.462437C26.0169 -0.152844 24.7105 -0.152844 23.6531 0.462437L1.71064 13.192C0.653206 13.8073 0 14.9407 0 16.1712V41.6332C0 42.8608 0.653206 43.9972 1.71064 44.6125L20.9465 55.7729C22.0098 56.3882 23.2899 55.4962 23.1141 54.2744C22.912 52.8555 22.8476 51.3923 22.9384 49.8998H22.9413ZM6.16006 17.7551C6.72539 16.7688 7.97908 16.4332 8.96035 17.0014L25.3637 26.5191L41.9458 16.8984C42.9271 16.3302 44.1808 16.6658 44.7461 17.652C45.3114 18.6382 44.9775 19.8982 43.9962 20.4664L26.389 30.6818C26.0726 30.8644 25.7182 30.9586 25.3637 30.9586C25.0093 30.9586 24.6549 30.8673 24.3385 30.6818L6.90993 20.5694C5.92865 20.0013 5.5918 18.7413 6.16006 17.7551Z" fill="currentColor"/>
</g>
<defs>
<clipPath id="clip0_122_1958">
<rect width="56" height="63" fill="currentColor"/>
</clipPath>
</defs>
</svg>
