<svg width="28" height="28" viewBox="0 0 28 28" fill="none" xmlns="http://www.w3.org/2000/svg">
<path d="M1.63349 15.61L2.54349 16.52C2.75487 16.7315 3.00586 16.8993 3.28211 17.0138C3.55836 17.1283 3.85446 17.1872 4.15349 17.1872C4.45252 17.1872 4.74862 17.1283 5.02487 17.0138C5.30112 16.8993 5.55211 16.7315 5.76349 16.52L6.67349 15.61C6.885 15.3986 7.05279 15.1476 7.16727 14.8714C7.28175 14.5951 7.34067 14.299 7.34067 14C7.34067 13.701 7.28175 13.4049 7.16727 13.1286C7.05279 12.8524 6.885 12.6014 6.67349 12.39L5.76349 11.48C5.55211 11.2685 5.30112 11.1007 5.02487 10.9862C4.74862 10.8717 4.45252 10.8128 4.15349 10.8128C3.85446 10.8128 3.55836 10.8717 3.28211 10.9862C3.00586 11.1007 2.75487 11.2685 2.54349 11.48L1.63349 12.39C1.42198 12.6014 1.25419 12.8524 1.13971 13.1286C1.02523 13.4049 0.966309 13.701 0.966309 14C0.966309 14.299 1.02523 14.5951 1.13971 14.8714C1.25419 15.1476 1.42198 15.3986 1.63349 15.61ZM2.87016 13.6267L3.78016 12.7167C3.82906 12.6674 3.88723 12.6283 3.9513 12.6017C4.01537 12.575 4.08409 12.5613 4.15349 12.5613C4.22289 12.5613 4.29161 12.575 4.35568 12.6017C4.41975 12.6283 4.47792 12.6674 4.52682 12.7167L5.43682 13.6267C5.48607 13.6756 5.52515 13.7337 5.55182 13.7978C5.57849 13.8619 5.59222 13.9306 5.59222 14C5.59222 14.0694 5.57849 14.1381 5.55182 14.2022C5.52515 14.2663 5.48607 14.3244 5.43682 14.3733L4.52682 15.2833C4.47792 15.3326 4.41975 15.3717 4.35568 15.3983C4.29161 15.425 4.22289 15.4387 4.15349 15.4387C4.08409 15.4387 4.01537 15.425 3.9513 15.3983C3.88723 15.3717 3.82906 15.3326 3.78016 15.2833L2.87016 14.3733C2.82091 14.3244 2.78183 14.2663 2.75516 14.2022C2.72849 14.1381 2.71476 14.0694 2.71476 14C2.71476 13.9306 2.72849 13.8619 2.75516 13.7978C2.78183 13.7337 2.82091 13.6756 2.87016 13.6267ZM10.5702 4.025V5.30833C10.5702 6.56133 11.5922 7.58333 12.8452 7.58333H14.1285C15.3815 7.58333 16.4035 6.56133 16.4035 5.30833V4.025C16.4035 2.772 15.3815 1.75 14.1285 1.75H12.8452C11.5922 1.75 10.5702 2.772 10.5702 4.025ZM12.3202 5.30833V4.025C12.3202 3.738 12.5582 3.5 12.8452 3.5H14.1285C14.4155 3.5 14.6535 3.738 14.6535 4.025V5.30833C14.6523 5.4472 14.5966 5.58002 14.4984 5.67822C14.4002 5.77641 14.2674 5.83212 14.1285 5.83333H12.8452C12.5582 5.83333 12.3202 5.59534 12.3202 5.30833ZM10.5702 22.6917V23.975C10.5702 25.228 11.5922 26.25 12.8452 26.25H14.1285C15.3815 26.25 16.4035 25.228 16.4035 23.975V22.6917C16.4035 21.4387 15.3815 20.4167 14.1285 20.4167H12.8452C11.5922 20.4167 10.5702 21.4387 10.5702 22.6917ZM12.3202 23.975V22.6917C12.3202 22.4047 12.5582 22.1667 12.8452 22.1667H14.1285C14.4155 22.1667 14.6535 22.4047 14.6535 22.6917V23.975C14.6523 24.1139 14.5966 24.2467 14.4984 24.3449C14.4002 24.4431 14.2674 24.4988 14.1285 24.5H12.8452C12.5582 24.5 12.3202 24.262 12.3202 23.975Z" fill="currentColor"/>
<path d="M4.98145 13.1717C4.83326 13.0235 4.74317 12.8271 4.72754 12.6181C4.71191 12.4092 4.77179 12.2015 4.89629 12.033L4.98029 11.9338L11.1636 5.7505C11.3193 5.59194 11.5295 5.49855 11.7515 5.48928C11.9735 5.48002 12.1908 5.55558 12.3591 5.70062C12.5275 5.84566 12.6343 6.04932 12.658 6.27027C12.6817 6.49122 12.6204 6.7129 12.4866 6.89033L12.4015 6.98833L6.21812 13.1717C6.05406 13.3355 5.83166 13.4276 5.59979 13.4276C5.36791 13.4276 5.14551 13.3355 4.98145 13.1717ZM5.86112 16.823C5.70416 16.6671 5.6121 16.4575 5.60347 16.2364C5.59484 16.0153 5.67028 15.7992 5.81461 15.6315C5.95894 15.4638 6.16143 15.357 6.38134 15.3326C6.60124 15.3082 6.82222 15.368 6.99979 15.5L7.09895 15.5852L12.4026 21.0105C12.5592 21.1666 12.6508 21.3762 12.6591 21.5972C12.6674 21.8181 12.5918 22.034 12.4474 22.2015C12.303 22.3689 12.1006 22.4755 11.8808 22.4998C11.6611 22.524 11.4402 22.4642 11.2628 22.3323L11.1648 22.2472L5.86112 16.8218V16.823Z" fill="currentColor"/>
</svg>
