<svg width="28" height="28" viewBox="0 0 28 28" fill="none" xmlns="http://www.w3.org/2000/svg">
<g clip-path="url(#clip0_25_294)">
<path d="M23.6758 7.19086H25.6005V21.2954H23.6758V7.19086Z" fill="currentColor"/>
<path d="M2.40723 7.06769H4.33197V21.1722H2.40723V7.06769Z" fill="currentColor"/>
<path d="M3.36831 26.6296C2.70212 26.6296 2.05089 26.432 1.49698 26.0619C0.943063 25.6918 0.511338 25.1657 0.256399 24.5503C0.00145941 23.9348 -0.0652443 23.2575 0.0647226 22.6041C0.19469 21.9507 0.51549 21.3506 0.986556 20.8795C1.45762 20.4084 2.0578 20.0876 2.71119 19.9577C3.36457 19.8277 4.04183 19.8944 4.65731 20.1493C5.27278 20.4043 5.79884 20.836 6.16896 21.3899C6.53907 21.9438 6.73662 22.5951 6.73662 23.2613C6.73526 24.1542 6.37995 25.0101 5.74856 25.6415C5.11718 26.2729 4.26122 26.6282 3.36831 26.6296ZM3.36831 21.8177C3.0828 21.8177 2.8037 21.9024 2.56631 22.061C2.32892 22.2196 2.14389 22.4451 2.03463 22.7088C1.92537 22.9726 1.89679 23.2629 1.95249 23.5429C2.00819 23.8229 2.14567 24.0801 2.34756 24.282C2.54944 24.4839 2.80666 24.6214 3.08669 24.6771C3.36671 24.7328 3.65696 24.7042 3.92074 24.5949C4.18451 24.4857 4.40997 24.3006 4.56859 24.0633C4.72721 23.8259 4.81187 23.5468 4.81187 23.2613C4.81085 22.8788 4.6584 22.5124 4.38786 22.2421C4.11732 21.9718 3.75074 21.8197 3.36831 21.819V21.8177Z" fill="currentColor"/>
<path d="M24.6378 8.34575C23.9717 8.34575 23.3204 8.1482 22.7665 7.77809C22.2126 7.40797 21.7809 6.88191 21.5259 6.26644C21.271 5.65096 21.2043 4.9737 21.3343 4.32032C21.4642 3.66693 21.785 3.06675 22.2561 2.59569C22.7272 2.12462 23.3273 1.80382 23.9807 1.67385C24.6341 1.54389 25.3114 1.61059 25.9268 1.86553C26.5423 2.12047 27.0684 2.55219 27.4385 3.10611C27.8086 3.66002 28.0061 4.31125 28.0061 4.97744C28.0048 5.87036 27.6495 6.72631 27.0181 7.3577C26.3867 7.98908 25.5308 8.34439 24.6378 8.34575ZM24.6378 3.53388C24.3523 3.53388 24.0732 3.61854 23.8358 3.77716C23.5984 3.93578 23.4134 4.16124 23.3042 4.42501C23.1949 4.68879 23.1663 4.97904 23.222 5.25907C23.2777 5.53909 23.4152 5.79631 23.6171 5.99819C23.819 6.20008 24.0762 6.33756 24.3562 6.39326C24.6362 6.44896 24.9265 6.42038 25.1903 6.31112C25.454 6.20186 25.6795 6.01683 25.8381 5.77944C25.9967 5.54205 26.0814 5.26295 26.0814 4.97744C26.0811 4.59457 25.9289 4.22746 25.6583 3.95661C25.3877 3.68576 25.0207 3.53328 24.6378 3.5326V3.53388Z" fill="currentColor"/>
<path d="M5.57812 3.7738H22.4684V5.69855H5.57812V3.7738Z" fill="currentColor"/>
<path d="M5.57812 22.3002H22.4684V24.2249H5.57812V22.3002Z" fill="currentColor"/>
<path d="M24.6382 26.6296C24.0842 26.6296 23.5387 26.493 23.0501 26.2319C22.5615 25.9707 22.1448 25.5931 21.8371 25.1324C21.5293 24.6717 21.3399 24.1422 21.2857 23.5909C21.2315 23.0395 21.3141 22.4833 21.5263 21.9715C21.7384 21.4597 22.0735 21.0081 22.5019 20.6568C22.9303 20.3055 23.4387 20.0652 23.9822 19.9574C24.5256 19.8495 25.0872 19.8774 25.6173 20.0385C26.1474 20.1996 26.6296 20.489 27.0211 20.881C27.4923 21.352 27.8133 21.9521 27.9433 22.6056C28.0732 23.259 28.0065 23.9364 27.7513 24.5518C27.4962 25.1673 27.0642 25.6932 26.5101 26.0631C25.9559 26.433 25.3045 26.6301 24.6382 26.6296ZM24.6382 21.819C24.3045 21.8202 23.9815 21.9369 23.7242 22.1494C23.4669 22.3619 23.2911 22.657 23.2268 22.9845C23.1626 23.3119 23.2137 23.6515 23.3716 23.9455C23.5295 24.2395 23.7844 24.4698 24.0929 24.597C24.4014 24.7243 24.7445 24.7407 25.0637 24.6435C25.383 24.5464 25.6587 24.3416 25.844 24.064C26.0293 23.7865 26.1127 23.4533 26.08 23.1212C26.0473 22.7891 25.9006 22.4785 25.6648 22.2424C25.5304 22.1071 25.3704 22 25.1942 21.9272C25.0179 21.8545 24.8289 21.8177 24.6382 21.819Z" fill="currentColor"/>
<path d="M3.36855 8.10575C2.92605 8.10697 2.4877 8.02037 2.0789 7.851C1.6701 7.68162 1.29897 7.43281 0.986994 7.119C0.436977 6.56795 0.0950125 5.84325 0.0193529 5.06837C-0.0563066 4.29348 0.139018 3.51632 0.572055 2.86929C1.00509 2.22225 1.64906 1.74536 2.39425 1.51984C3.13945 1.29432 3.93978 1.33412 4.65892 1.63247C5.37806 1.93083 5.97153 2.46927 6.33822 3.15608C6.70492 3.84289 6.82217 4.63559 6.66999 5.39914C6.51782 6.1627 6.10563 6.84988 5.50365 7.34364C4.90167 7.83739 4.14712 8.10718 3.36855 8.10703V8.10575ZM2.34202 5.75756C2.61312 6.02805 2.98045 6.17995 3.36342 6.17995C3.74638 6.17995 4.11371 6.02805 4.38482 5.75756C4.65523 5.48667 4.8071 5.11956 4.8071 4.7368C4.8071 4.35405 4.65523 3.98693 4.38482 3.71604C4.25077 3.58191 4.09161 3.4755 3.91644 3.40287C3.74126 3.33025 3.5535 3.29284 3.36387 3.29278C3.17424 3.29272 2.98645 3.33001 2.81123 3.40252C2.63601 3.47504 2.47679 3.58135 2.34266 3.7154C2.20853 3.84945 2.10211 4.0086 2.02949 4.18378C1.95686 4.35895 1.91945 4.54672 1.91939 4.73635C1.91933 4.92598 1.95662 5.11377 2.02914 5.28899C2.10165 5.46421 2.20797 5.62343 2.34202 5.75756Z" fill="currentColor"/>
</g>
<defs>
<clipPath id="clip0_25_294">
<rect width="28" height="28" fill="currentColor"/>
</clipPath>
</defs>
</svg>
