<svg width="28" height="28" viewBox="0 0 28 28" fill="none" xmlns="http://www.w3.org/2000/svg">
<path d="M12.8334 1.35187C6.4924 1.35187 1.35205 6.49222 1.35205 12.8332C1.35205 19.1743 6.4924 24.3149 12.8334 24.3149C15.653 24.3149 18.2318 23.2944 20.2302 21.6081L24.44 25.8174L24.571 25.9301C25.0277 26.2689 25.6758 26.2314 26.0899 25.8171C26.5455 25.3615 26.5454 24.6228 26.0897 24.1672L21.8495 19.9278C23.389 17.974 24.3151 15.5137 24.3151 12.8332C24.3151 6.49222 19.1745 1.35187 12.8334 1.35187ZM12.8334 3.68511C17.8858 3.68511 21.9818 7.78085 21.9818 12.8332C21.9818 17.8856 17.8858 21.9816 12.8334 21.9816C7.78103 21.9816 3.68529 17.8856 3.68529 12.8332C3.68529 7.78085 7.78103 3.68511 12.8334 3.68511ZM17.4717 11.7302L8.55193 11.7414C8.40616 11.7416 8.26186 11.7705 8.12726 11.8265C7.99266 11.8824 7.8704 11.9644 7.76746 12.0676C7.66453 12.1708 7.58293 12.2933 7.52733 12.428C7.47173 12.5628 7.44322 12.7072 7.44342 12.8529C7.44361 12.9987 7.47252 13.143 7.52848 13.2776C7.58445 13.4122 7.66637 13.5345 7.76959 13.6374C7.87281 13.7403 7.99529 13.8219 8.13004 13.8775C8.26479 13.9331 8.40917 13.9616 8.55494 13.9614L17.4745 13.9502C17.6202 13.9501 17.7646 13.9212 17.8992 13.8653C18.0338 13.8093 18.1561 13.7274 18.259 13.6242C18.362 13.5211 18.4436 13.3986 18.4992 13.2639C18.5549 13.1291 18.5834 12.9847 18.5833 12.839C18.5831 12.6932 18.5542 12.5488 18.4983 12.4142C18.4423 12.2796 18.3604 12.1573 18.2572 12.0543C18.154 11.9514 18.0315 11.8697 17.8967 11.8141C17.7619 11.7585 17.6175 11.73 17.4717 11.7302Z" fill="currentColor"/>
</svg>
