<svg width="28" height="28" viewBox="0 0 28 28" fill="none" xmlns="http://www.w3.org/2000/svg">
<path d="M12.8334 1.35187C6.4924 1.35187 1.35205 6.49222 1.35205 12.8332C1.35205 19.1743 6.4924 24.3149 12.8334 24.3149C15.653 24.3149 18.2318 23.2944 20.2302 21.6081L24.44 25.8174L24.571 25.9301C25.0277 26.2689 25.6758 26.2314 26.0899 25.8171C26.5455 25.3615 26.5454 24.6228 26.0897 24.1672L21.8495 19.9278C23.389 17.974 24.3151 15.5137 24.3151 12.8332C24.3151 6.49222 19.1745 1.35187 12.8334 1.35187ZM12.8334 3.68511C17.8858 3.68511 21.9818 7.78085 21.9818 12.8332C21.9818 17.8856 17.8858 21.9816 12.8334 21.9816C7.78103 21.9816 3.68529 17.8856 3.68529 12.8332C3.68529 7.78085 7.78103 3.68511 12.8334 3.68511ZM12.8334 7.703C12.1891 7.703 11.6669 8.22543 11.6669 8.86976V11.6668H8.75018L8.59186 11.6774C8.02242 11.7547 7.58342 12.2426 7.58342 12.8332C7.58342 13.4776 8.10585 14 8.75018 14H11.6653L11.6669 17.0365L11.6776 17.1948C11.7548 17.7643 12.2428 18.203 12.8334 18.203C13.4777 18.203 14.0002 17.6808 14.0002 17.0365L13.9985 14H16.9169L17.0753 13.9893C17.6447 13.9121 18.0834 13.4239 18.0834 12.8332C18.0834 12.1889 17.5613 11.6668 16.9169 11.6668H14.0002V8.86976L13.9895 8.71144C13.9122 8.142 13.424 7.703 12.8334 7.703Z" fill="currentColor"/>
</svg>
